<svg id="visual" viewBox="0 0 1920 1080" width="1920" height="1080" xmlns="http://www.w3.org/2000/svg" xmlns:xlink="http://www.w3.org/1999/xlink" version="1.1"><rect x="0" y="0" width="1920" height="1080" fill="#001220"></rect><defs><linearGradient id="grad1_0" x1="43.8%" y1="0%" x2="100%" y2="100%"><stop offset="14.444444444444446%" stop-color="#001220" stop-opacity="1"></stop><stop offset="85.55555555555554%" stop-color="#001220" stop-opacity="1"></stop></linearGradient></defs><defs><linearGradient id="grad2_0" x1="0%" y1="0%" x2="56.3%" y2="100%"><stop offset="14.444444444444446%" stop-color="#001220" stop-opacity="1"></stop><stop offset="85.55555555555554%" stop-color="#001220" stop-opacity="1"></stop></linearGradient></defs><g transform="translate(1920, 0)"><path d="M0 594C-103.1 578 -206.3 562 -297 514.4C-387.7 466.8 -466.1 387.5 -513.6 296.5C-561 205.5 -577.5 102.7 -594 0L0 0Z" fill="#2988cf"></path></g><g transform="translate(0, 1080)"><path d="M0 -594C103.8 -578.4 207.6 -562.8 297 -514.4C386.4 -466 461.3 -384.7 508.4 -293.5C555.4 -202.3 574.7 -101.1 594 0L0 0Z" fill="#2988cf"></path></g></svg>